<svg width="205.000000" height="49.419556" viewBox="0 0 205 49.4196" fill="none" xmlns="http://www.w3.org/2000/svg" xmlns:xlink="http://www.w3.org/1999/xlink">
	<desc>
			Created with Pixso.
	</desc>
	<defs/>
	<path id="path" d="M58.92 18.8L62.68 18.8L62.68 6.78L72.19 18.8L75.37 18.8L75.37 0.1L71.63 0.1L71.63 12.07L62.2 0.1L58.92 0.1L58.92 18.8ZM77.88 18.8L81.91 18.8L83.76 14.47L91.66 14.47L93.51 18.8L97.59 18.8L89.58 0L85.89 0L77.88 18.8ZM84.96 11.29L87.71 4.8L90.44 11.29L84.96 11.29ZM100.08 18.8L103.92 18.8L103.92 11.24L107.16 11.24L112.61 18.8L117.07 18.8L111.3 10.81C113.75 10.07 115.17 8.09 115.17 5.63C115.17 2.43 112.77 0.1 108.73 0.1L100.08 0.1L100.08 18.8ZM103.92 8.01L103.92 3.47L108.52 3.47C110.25 3.47 111.3 4.3 111.3 5.74C111.3 7.21 110.25 8.01 108.52 8.01L103.92 8.01ZM117.95 18.8L121.98 18.8L123.82 14.47L131.73 14.47L133.57 18.8L137.66 18.8L129.65 0L125.96 0L117.95 18.8ZM125.03 11.29L127.78 4.8L130.5 11.29L125.03 11.29ZM58.92 49.04L62.63 49.04L62.63 30.34L58.92 30.34L58.92 49.04ZM66.98 49.04L70.75 49.04L70.75 37.02L80.26 49.04L83.44 49.04L83.44 30.34L79.7 30.34L79.7 42.31L70.27 30.34L66.98 30.34L66.98 49.04ZM86.32 30.34L86.32 33.79L92.23 33.79L92.23 49.04L96.07 49.04L96.07 33.79L102 33.79L102 30.34L86.32 30.34ZM104.86 49.04L118.88 49.04L118.88 45.6L108.71 45.6L108.71 40.79L116.67 40.79L116.67 37.4L108.71 37.4L108.71 33.79L118.59 33.79L118.59 30.34L104.86 30.34L104.86 49.04ZM121.95 49.04L125.8 49.04L125.8 41.48L129.03 41.48L134.48 49.04L138.94 49.04L133.17 41.05C135.63 40.31 137.05 38.33 137.05 35.87C137.05 32.67 134.64 30.34 130.61 30.34L121.95 30.34L121.95 49.04ZM125.8 38.25L125.8 33.71L130.39 33.71C132.13 33.71 133.17 34.54 133.17 35.98C133.17 37.45 132.13 38.25 130.39 38.25L125.8 38.25ZM141.59 49.04L145.41 49.04L145.41 30.34L141.59 30.34L141.59 49.04ZM158.71 45.81C155.42 45.81 152.94 43.22 152.94 39.69C152.94 36.17 155.42 33.58 158.71 33.58C161.99 33.58 164.48 36.17 164.48 39.69C164.48 43.22 161.99 45.81 158.71 45.81ZM158.71 49.41C164.32 49.41 168.4 45.06 168.4 39.69C168.4 34.3 164.32 29.97 158.71 29.97C153.1 29.97 149.01 34.3 149.01 39.69C149.01 45.06 153.1 49.41 158.71 49.41ZM171.88 49.04L175.72 49.04L175.72 41.48L178.95 41.48L184.4 49.04L188.86 49.04L183.09 41.05C185.55 40.31 186.97 38.33 186.97 35.87C186.97 32.67 184.56 30.34 180.53 30.34L171.88 30.34L171.88 49.04ZM175.72 38.25L175.72 33.71L180.32 33.71C182.05 33.71 183.09 34.54 183.09 35.98C183.09 37.45 182.05 38.25 180.32 38.25L175.72 38.25ZM197.57 49.41C201.74 49.41 205 47.25 205 43.62C205 40.07 202.09 38.74 199.07 37.77C196.53 36.95 194.53 36.73 194.53 35.34C194.53 34.3 195.41 33.5 197.7 33.5C199.92 33.5 202.24 34.32 203.77 35.26L203.77 31.52C202.24 30.69 200.16 29.97 197.65 29.97C193.32 29.97 190.6 31.97 190.6 35.31C190.6 39.13 193.62 40.02 196.85 41.03C199.25 41.78 201.02 42.1 201.02 43.73C201.02 45.22 199.28 45.89 197.41 45.89C194.82 45.89 191.93 44.71 190.47 43.4L190.47 47.41C192.31 48.69 194.85 49.41 197.57 49.41Z" fill="#1F1B20" fill-opacity="1.000000" fill-rule="nonzero"/>
	<path id="path" d="M3.96 41.04L3.96 45.08L45 45.08L45 4.04L37.38 4.04L37.38 0.07L48.96 0.07L48.96 49.04L0 49.04L0 41.04L3.96 41.04ZM30.99 10.59L25.83 4.04L3.96 4.04L3.96 31.17L0 31.17L0 0.07L27.74 0.07L34.1 8.14L30.99 10.59Z" fill="#1F1B20" fill-opacity="1.000000" fill-rule="nonzero"/>
</svg>
